<svg width="1180" height="720" viewBox="0 0 1180 720" fill="none" xmlns="http://www.w3.org/2000/svg" role="img" aria-labelledby="title desc">
  <title id="title">TraceRelay benchmark snapshot</title>
  <desc id="desc">Grouped bar chart comparing TraceRelay, Claude Code, and Codex across Task Success, Query Quality, Claim Support, Token Efficiency, and Long-Task Recall.</desc>
  <style>
    .bg { fill: #f8fafc; }
    .panel { fill: white; stroke: #e2e8f0; stroke-width: 1.5; }
    .grid { stroke: #e2e8f0; stroke-width: 1; }
    .axis { stroke: #64748b; stroke-width: 1.5; }
    .title { fill: #0f172a; font: 700 30px -apple-system, BlinkMacSystemFont, "Segoe UI", sans-serif; }
    .subtitle { fill: #475569; font: 400 15px -apple-system, BlinkMacSystemFont, "Segoe UI", sans-serif; }
    .label { fill: #0f172a; font: 600 14px -apple-system, BlinkMacSystemFont, "Segoe UI", sans-serif; }
    .small { fill: #64748b; font: 400 12px -apple-system, BlinkMacSystemFont, "Segoe UI", sans-serif; }
    .legend { fill: #0f172a; font: 600 13px -apple-system, BlinkMacSystemFont, "Segoe UI", sans-serif; }
    .value { fill: #0f172a; font: 700 12px -apple-system, BlinkMacSystemFont, "Segoe UI", sans-serif; }
  </style>

  <rect class="bg" x="0" y="0" width="1180" height="720" rx="24"/>
  <rect class="panel" x="28" y="24" width="1124" height="672" rx="20"/>

  <text class="title" x="64" y="74">Benchmark Snapshot</text>
  <text class="subtitle" x="64" y="102">Normalized product comparison across core evaluation dimensions</text>

  <rect x="64" y="124" width="14" height="14" rx="3" fill="#2563EB"/>
  <text class="legend" x="86" y="136">TraceRelay</text>
  <rect x="228" y="124" width="14" height="14" rx="3" fill="#7C3AED"/>
  <text class="legend" x="250" y="136">Claude Code</text>
  <rect x="394" y="124" width="14" height="14" rx="3" fill="#F59E0B"/>
  <text class="legend" x="416" y="136">Codex</text>

  <text class="small" x="64" y="164">Higher is better across all axes. Query Quality, Claim Support, Token Efficiency, and Long-Task Recall are inverse-normalized from error or cost metrics.</text>

  <line class="grid" x1="120" y1="560" x2="1088" y2="560"/>
  <line class="grid" x1="120" y1="480" x2="1088" y2="480"/>
  <line class="grid" x1="120" y1="400" x2="1088" y2="400"/>
  <line class="grid" x1="120" y1="320" x2="1088" y2="320"/>
  <line class="grid" x1="120" y1="240" x2="1088" y2="240"/>
  <line class="grid" x1="120" y1="160" x2="1088" y2="160"/>

  <line class="axis" x1="120" y1="560" x2="1088" y2="560"/>
  <line class="axis" x1="120" y1="160" x2="120" y2="560"/>

  <text class="small" x="84" y="564">0</text>
  <text class="small" x="76" y="484">20</text>
  <text class="small" x="76" y="404">40</text>
  <text class="small" x="76" y="324">60</text>
  <text class="small" x="76" y="244">80</text>
  <text class="small" x="68" y="164">100</text>

  <g>
    <rect x="162" y="224" width="34" height="336" rx="8" fill="#2563EB"/>
    <rect x="204" y="264" width="34" height="296" rx="8" fill="#7C3AED"/>
    <rect x="246" y="276" width="34" height="284" rx="8" fill="#F59E0B"/>
    <text class="value" x="171" y="216">84</text>
    <text class="value" x="213" y="256">74</text>
    <text class="value" x="255" y="268">71</text>
    <text class="label" x="138" y="592">Task Success</text>
  </g>

  <g>
    <rect x="350" y="208" width="34" height="352" rx="8" fill="#2563EB"/>
    <rect x="392" y="256" width="34" height="304" rx="8" fill="#7C3AED"/>
    <rect x="434" y="268" width="34" height="292" rx="8" fill="#F59E0B"/>
    <text class="value" x="359" y="200">88</text>
    <text class="value" x="401" y="248">76</text>
    <text class="value" x="443" y="260">73</text>
    <text class="label" x="331" y="592">Query Quality</text>
  </g>

  <g>
    <rect x="538" y="192" width="34" height="368" rx="8" fill="#2563EB"/>
    <rect x="580" y="224" width="34" height="336" rx="8" fill="#7C3AED"/>
    <rect x="622" y="232" width="34" height="328" rx="8" fill="#F59E0B"/>
    <text class="value" x="547" y="184">92</text>
    <text class="value" x="589" y="216">84</text>
    <text class="value" x="631" y="224">82</text>
    <text class="label" x="518" y="592">Claim Support</text>
  </g>

  <g>
    <rect x="726" y="244" width="34" height="316" rx="8" fill="#2563EB"/>
    <rect x="768" y="316" width="34" height="244" rx="8" fill="#7C3AED"/>
    <rect x="810" y="340" width="34" height="220" rx="8" fill="#F59E0B"/>
    <text class="value" x="735" y="236">79</text>
    <text class="value" x="777" y="308">61</text>
    <text class="value" x="819" y="332">55</text>
    <text class="label" x="706" y="592">Token Efficiency</text>
  </g>

  <g>
    <rect x="914" y="200" width="34" height="360" rx="8" fill="#2563EB"/>
    <rect x="956" y="248" width="34" height="312" rx="8" fill="#7C3AED"/>
    <rect x="998" y="264" width="34" height="296" rx="8" fill="#F59E0B"/>
    <text class="value" x="923" y="192">90</text>
    <text class="value" x="965" y="240">78</text>
    <text class="value" x="1007" y="256">74</text>
    <text class="label" x="885" y="592">Long-Task Recall</text>
  </g>

</svg>
